HIERARCHY
ROOT hip
{
	OFFSET 0.000000 0.000000 0.000000 
	CHANNELS 6 Xposition Yposition Zposition Xrotation Zrotation Yrotation
	JOINT abdomen
	{
		OFFSET 0.000000 3.402643 0.000000 
		CHANNELS 3 Xrotation Zrotation Yrotation
		JOINT chest
		{
			OFFSET 0.000000 8.438565 -0.680529 
			CHANNELS 3 Xrotation Zrotation Yrotation
			JOINT neck
			{
				OFFSET 0.000000 10.207942 -0.272212 
				CHANNELS 3 Xrotation Zrotation Yrotation
				JOINT head
				{
					OFFSET 0.000000 3.130431 0.000000 
					CHANNELS 3 Xrotation Zrotation Yrotation
					End Site
					{
						OFFSET 0.000000 3.130435 0.000000 
					}
				}
			}
			JOINT lCollar
			{
				OFFSET 3.470700 6.669187 -0.816635 
				CHANNELS 3 Yrotation Zrotation Xrotation
				JOINT lShldr
				{
					OFFSET 3.198488 0.000000 0.000000 
					CHANNELS 3 Zrotation Yrotation Xrotation
					JOINT lForeArm
					{
						OFFSET 10.139888 0.000000 0.000000 
						CHANNELS 3 Yrotation Zrotation Xrotation
						JOINT lHand
						{
							OFFSET 8.370511 0.000000 0.000000 
							CHANNELS 3 Zrotation Yrotation Xrotation
							End Site
							{
								OFFSET 4.083176 0.000000 0.000000 
							}
						}
					}
				}
			}
			JOINT rCollar
			{
				OFFSET -3.470700 6.669187 -0.816635 
				CHANNELS 3 Yrotation Zrotation Xrotation
				JOINT rShldr
				{
					OFFSET -3.198488 0.000000 0.000000 
					CHANNELS 3 Zrotation Yrotation Xrotation
					JOINT rForeArm
					{
						OFFSET -10.139888 0.000000 0.000000 
						CHANNELS 3 Yrotation Zrotation Xrotation
						JOINT rHand
						{
							OFFSET -8.370511 0.000000 0.000000 
							CHANNELS 3 Zrotation Yrotation Xrotation
							End Site
							{
								OFFSET -4.083176 0.000000 0.000000 
							}
						}
					}
				}
			}
		}
	}
	JOINT lThigh
	{
		OFFSET 5.308129 -1.633274 1.361059 
		CHANNELS 3 Xrotation Zrotation Yrotation
		JOINT lShin
		{
			OFFSET -2.041588 -20.007561 0.000000 
			CHANNELS 3 Xrotation Zrotation Yrotation
			JOINT lFoot
			{
				OFFSET 0.000000 -19.190928 -1.224953 
				CHANNELS 3 Xrotation Yrotation Zrotation
				End Site
				{
					OFFSET 0.000000 -2.449906 4.627600 
				}
			}
		}
	}
	JOINT rThigh
	{
		OFFSET -5.308129 -1.633274 1.361059 
		CHANNELS 3 Xrotation Zrotation Yrotation
		JOINT rShin
		{
			OFFSET 2.041588 -20.007561 0.000000 
			CHANNELS 3 Xrotation Zrotation Yrotation
			JOINT rFoot
			{
				OFFSET 0.000000 -19.190928 -1.224953 
				CHANNELS 3 Xrotation Yrotation Zrotation
				End Site
				{
					OFFSET 0.000000 -2.449906 4.627600 
				}
			}
		}
	}
}
MOTION
Frames: 15
Frame Time: 0.011111
-17.975624 58.925148 -76.446358 3.015654 2.420064 -7.109083 19.233316 17.478849 -14.800570 -14.387959 -23.007168 -6.901771 -7.412693 10.601901 20.475880 17.884108 -24.925571 39.068714 3.020945 -4.671623 1.932447 -59.083794 -15.491144 -2.660142 -52.855953 8.297051 9.321895 8.524705 12.647240 -37.425182 -4.079493 7.469375 2.114597 80.178970 33.380470 48.031956 47.459305 -7.079868 7.153559 -8.534408 -12.637552 41.702984 -13.316665 4.197917 5.072748 73.415253 -1.100447 -9.095679 18.312593 -3.403026 -0.778003 -23.353535 -7.390989 0.324871 43.377705 4.374785 6.475367 -26.471762 0.279107 2.229358 
-18.136028 58.902943 -76.142746 3.297896 1.832090 -6.810150 18.956110 18.349569 -14.468176 -14.465364 -23.408041 -6.889965 -7.054667 10.378099 20.487301 17.460665 -24.378242 39.102432 3.020945 -4.671623 1.932447 -59.104160 -15.031693 -2.300263 -52.593967 8.250828 9.215507 8.524705 12.647240 -37.395885 -4.079493 7.469375 2.114597 80.521561 33.569355 48.139359 47.417618 -7.067144 7.135856 -8.534408 -12.637552 40.745956 -15.359103 5.194272 5.655711 75.652824 -0.788596 -9.225938 17.186888 -4.821284 -0.665725 -22.892687 -6.511668 0.429625 43.318897 4.377819 6.461751 -26.985264 -0.156661 1.949974 
-18.283617 58.953289 -75.805679 3.464333 1.601307 -6.546048 18.653131 18.792393 -14.267121 -14.491158 -23.774874 -6.888148 -6.782163 10.252376 20.468077 17.225733 -23.991035 39.072552 3.020945 -4.671623 1.932447 -59.123775 -14.533184 -2.106313 -52.404148 8.210628 9.134329 8.524705 12.647240 -37.542370 -4.079493 7.469375 2.114597 80.918808 33.824001 48.556183 47.262398 -7.027555 7.079811 -8.534408 -12.637552 40.511578 -17.100821 5.816376 6.422921 77.521332 -0.564986 -9.317334 15.010707 -6.702739 -0.725697 -22.256151 -6.198634 0.154623 43.063198 4.387622 6.433777 -27.218771 -0.100226 1.955436 
-18.448399 59.004570 -75.494255 3.398877 1.551448 -6.168665 18.676229 18.905886 -14.220753 -14.588987 -23.970167 -6.876191 -6.611360 10.090265 20.470505 17.078531 -23.524853 39.086079 3.020945 -4.671623 1.932447 -59.038914 -14.231979 -1.935894 -52.025898 8.133288 8.969673 8.524705 12.647240 -38.059948 -4.079493 7.469375 2.114597 81.224876 33.916714 49.096714 47.335152 -7.048209 7.107645 -8.534408 -12.637552 40.521343 -18.655787 6.237168 7.188081 79.309891 -0.301579 -9.402106 15.892509 -7.941997 -0.302463 -21.486086 -6.033092 0.098910 42.894413 4.423470 6.403614 -27.572056 -0.155252 1.908373 
-18.626936 59.029266 -75.228783 3.381875 1.456927 -5.763802 18.744251 19.018581 -14.246593 -14.684111 -23.996443 -6.877231 -6.614710 9.819750 20.481533 17.027645 -22.943197 39.139606 3.020945 -4.671623 1.932447 -59.113853 -14.035231 -1.874326 -51.784397 8.084413 8.876560 8.524705 12.647240 -38.831432 -4.079493 7.469375 2.114597 81.367630 33.958664 49.808887 47.687172 -7.139681 7.247870 -8.534408 -12.637552 40.765480 -20.245068 6.733811 7.853855 80.943848 -0.096284 -9.466221 14.151148 -8.828605 -0.558538 -20.833439 -5.740452 0.163853 42.737049 4.426580 6.391211 -27.967661 -0.376530 1.734101 
-18.773584 59.054596 -74.932365 3.569186 1.547502 -5.343614 18.463017 19.016272 -14.294632 -14.558644 -24.170866 -6.917441 -6.797838 9.783224 20.401125 17.221327 -22.552874 39.001205 3.020945 -4.671623 1.932447 -59.226429 -13.749866 -1.940561 -51.879250 8.105859 8.917136 8.524705 12.647240 -39.544327 -4.079493 7.469375 2.114597 81.703362 34.186813 50.199089 48.081352 -7.240498 7.397838 -8.534408 -12.637552 40.150249 -21.805897 6.943179 8.561071 82.314011 0.097728 -9.524835 13.375059 -9.426943 -0.679942 -20.470705 -5.779223 -0.027809 42.619003 4.433191 6.373821 -28.339619 -0.392316 1.678016 
-18.905846 59.101810 -74.614372 3.785212 1.783967 -5.059200 18.125153 18.796509 -14.269438 -14.493520 -24.413387 -6.906665 -6.872933 9.975448 20.207884 17.505129 -22.438267 38.643219 3.020945 -4.671623 1.932447 -59.269444 -13.436499 -2.143763 -52.016087 8.136032 8.977719 8.524705 12.647240 -40.257214 -4.079493 7.469375 2.114597 82.218323 34.406086 49.866829 48.393204 -7.321055 7.520449 -8.534408 -12.637552 37.913918 -23.273474 6.998059 9.473577 83.518517 0.283633 -9.565373 13.574305 -9.596792 -0.605249 -20.216593 -5.954704 -0.138330 42.509216 4.446375 6.388097 -28.584965 -0.438240 1.600075 
-19.049053 59.167473 -74.317322 3.903227 1.920068 -4.890347 17.995375 18.619867 -14.140263 -14.593703 -24.555050 -6.839442 -6.901556 10.082675 20.110811 17.839066 -22.319921 38.417114 3.020945 -4.671623 1.932447 -59.363434 -13.210073 -2.415725 -52.047344 8.141041 8.988316 8.524705 12.647240 -41.087292 -4.079493 7.469375 2.114597 82.503944 34.352856 51.290016 48.424343 -7.328240 7.529850 -8.534408 -12.637552 41.175640 -24.637157 7.284543 10.475842 84.559128 0.409829 -9.594372 12.418900 -10.219151 -0.805660 -19.830070 -5.926335 0.002269 42.293007 4.456033 6.353638 -28.625092 -0.574495 1.527559 
-19.185696 59.196239 -74.033409 3.991577 1.728872 -4.705479 17.964411 18.907524 -13.921941 -14.800875 -24.714190 -6.766685 -6.899482 10.002815 20.100658 18.234591 -22.219007 38.330151 3.020945 -4.671623 1.932447 -59.662548 -12.901602 -2.765542 -52.162754 8.163043 9.030475 8.524705 12.647240 -41.819710 -4.079493 7.469375 2.114597 82.606979 34.259724 51.394642 49.079742 -7.490232 7.788393 -8.534408 -12.637552 39.720558 -25.761007 7.909842 11.347112 85.657455 0.547009 -9.633742 11.295625 -10.766159 -1.015203 -19.290398 -5.535398 0.078912 42.045784 4.491829 6.306677 -28.732847 -0.766227 1.438932 
-19.312643 59.271282 -73.722610 4.079440 1.344378 -4.564331 17.923347 19.452700 -13.598434 -15.137156 -24.884216 -6.664624 -6.782636 9.765333 20.111818 18.551140 -21.992414 38.260170 3.020945 -4.671623 1.932447 -60.171665 -12.276439 -3.021465 -52.561577 8.240222 9.197066 8.524705 12.647240 -42.181038 -4.079493 7.469375 2.114597 82.425743 33.681702 52.140808 49.997902 -7.712213 8.167290 -8.534408 -12.637552 39.876812 -27.502058 8.706574 12.156637 86.618446 0.703682 -9.663223 10.175411 -10.471252 -1.352125 -18.569118 -4.940017 0.133643 41.661201 4.504854 6.287931 -29.025679 -0.917069 1.296793 
-19.430523 59.318806 -73.417122 4.109442 1.247151 -4.404357 17.875296 19.629091 -13.368234 -15.472523 -25.094406 -6.548715 -6.620657 9.605283 20.092899 18.859835 -21.786331 38.137138 3.020945 -4.671623 1.932447 -60.579617 -11.535879 -3.124743 -53.044685 8.329549 9.396269 8.524705 12.647240 -42.454479 -4.079493 7.469375 2.114597 82.548714 33.587574 53.183548 50.457111 -7.813244 8.346901 -8.534408 -12.637552 41.058456 -28.659006 9.090260 12.845596 87.483833 0.820190 -9.671610 8.663535 -10.273403 -1.697967 -17.872055 -4.714454 0.142823 41.345528 4.534373 6.231968 -29.338890 -0.852533 1.271753 
-19.540586 59.398853 -73.132896 4.091685 1.232405 -4.082645 18.029457 19.729105 -13.230844 -15.688354 -25.359396 -6.495844 -6.732956 9.741911 19.976379 19.267742 -21.787409 37.895576 3.020945 -4.671623 1.932447 -60.788471 -11.170344 -3.294303 -53.329536 8.385664 9.520823 8.524705 12.647240 -42.786510 -4.079493 7.469375 2.114597 82.862396 33.650295 53.944221 50.896011 -7.908592 8.527748 -8.534408 -12.637552 41.849472 -30.105076 9.285710 13.546017 88.066124 0.907283 -9.699191 7.191255 -10.377789 -2.052449 -17.086111 -4.657096 -0.110947 40.890682 4.573215 6.187140 -29.641645 -0.899042 1.190888 
-19.644394 59.401043 -72.876495 4.180833 1.008505 -3.744899 18.217173 20.099958 -13.042913 -15.763803 -25.640696 -6.483067 -7.199723 9.918673 19.836040 19.740314 -21.682449 37.688347 3.020945 -4.671623 1.932447 -60.926701 -11.196893 -3.503997 -53.603676 8.436534 9.638155 8.524705 12.647240 -42.737679 -4.079493 7.469375 2.114597 83.101471 33.785160 54.697468 51.388165 -8.012384 8.721428 -8.534408 -12.637552 41.878765 -31.530434 9.656688 13.923082 88.804672 1.015594 -9.705070 3.926859 -11.982373 -2.784419 -16.461546 -4.373873 -0.377610 40.445396 4.612515 6.142493 -29.918497 -1.348510 0.924431 
-19.747892 59.463581 -72.597580 4.269271 0.577315 -3.531205 18.370754 20.692438 -12.690355 -15.913082 -25.979080 -6.433505 -7.393687 9.896293 19.781916 19.993675 -21.472454 37.604397 3.020945 -4.671623 1.932447 -61.123917 -11.222247 -3.797482 -53.834648 8.472743 9.724901 8.524705 12.647240 -42.386124 -4.079493 7.469375 2.114597 83.219322 33.759731 55.491402 51.954861 -8.131357 8.955802 -8.534408 -12.637552 42.513531 -33.249775 10.320853 14.484962 89.280060 1.093192 -9.723260 3.245022 -11.366731 -2.935171 -15.688939 -3.846591 -0.624704 39.921619 4.658187 6.063907 -30.297613 -2.014000 0.519807 
-19.851076 59.530804 -72.311180 4.191747 0.133258 -3.417363 18.634090 21.284809 -12.261201 -16.129822 -26.275181 -6.348657 -7.239683 9.716745 19.735601 19.959520 -21.363647 37.475681 3.020945 -4.671623 1.932447 -61.368855 -11.178235 -4.159403 -53.867088 8.482364 9.743840 8.524705 12.647240 -42.083385 -4.079493 7.469375 2.114597 83.275421 33.708023 56.264347 52.205853 -8.177785 9.059485 -8.534408 -12.637552 43.285015 -34.414242 10.986654 14.897468 89.678909 1.133414 -9.733932 1.928903 -11.157265 -3.220098 -14.715629 -3.290825 -0.877715 39.378231 4.696924 5.991238 -30.797491 -1.702432 0.586554 
